HIERARCHY
ROOT Hips
{
	OFFSET 0.0000 0.0000 0.0000
	CHANNELS 6 Xposition Yposition Zposition Zrotation Xrotation Yrotation
	JOINT Ab
	{
		OFFSET -0.0000 8.0846 -0.0000
		CHANNELS 3 Zrotation Xrotation Yrotation
		JOINT Chest
		{
			OFFSET -0.0000 25.0068 -0.0000
			CHANNELS 3 Zrotation Xrotation Yrotation
			JOINT Neck
			{
				OFFSET -0.0000 25.0068 0.0000
				CHANNELS 3 Zrotation Xrotation Yrotation
				JOINT Head
				{
					OFFSET -0.0000 10.7556 0.0000
					CHANNELS 3 Zrotation Xrotation Yrotation
					End Site
					{
						OFFSET -0.0000 16.6222 0.0000
					}
				}
			}
			JOINT LeftCollar
			{
				OFFSET -0.0000 25.0068 0.0000
				CHANNELS 3 Zrotation Xrotation Yrotation
				JOINT LeftShoulder
				{
					OFFSET 19.5556 -0.0000 0.0000
					CHANNELS 3 Zrotation Xrotation Yrotation
					JOINT LeftElbow
					{
						OFFSET 27.1828 0.0000 0.0000
						CHANNELS 3 Zrotation Xrotation Yrotation
						JOINT LeftWrist
						{
							OFFSET 23.3157 0.0000 0.0000
							CHANNELS 3 Zrotation Xrotation Yrotation
							End Site
							{
								OFFSET 0.0000 -14.6667 0.0000
							}
						}
					}
				}
			}
			JOINT RightCollar
			{
				OFFSET -0.0000 25.0068 0.0000
				CHANNELS 3 Zrotation Xrotation Yrotation
				JOINT RightShoulder
				{
					OFFSET -19.5556 0.0000 0.0000
					CHANNELS 3 Zrotation Xrotation Yrotation
					JOINT RightElbow
					{
						OFFSET -27.1828 0.0000 0.0000
						CHANNELS 3 Zrotation Xrotation Yrotation
						JOINT RightWrist
						{
							OFFSET -23.3157 0.0000 0.0000
							CHANNELS 3 Zrotation Xrotation Yrotation
							End Site
							{
								OFFSET -0.0000 -14.6667 0.0000
							}
						}
					}
				}
			}
		}
	}
	JOINT LeftHip
	{
		OFFSET 11.7333 0.0000 0.0000
		CHANNELS 3 Zrotation Xrotation Yrotation
		JOINT LeftKnee
		{
			OFFSET -0.0000 -40.8688 0.0000
			CHANNELS 3 Zrotation Xrotation Yrotation
			JOINT LeftAnkle
			{
				OFFSET -0.0000 -44.4337 0.0000
				CHANNELS 3 Zrotation Xrotation Yrotation
				End Site
				{
					OFFSET -0.0000 -4.8889 16.6222
				}
			}
		}
	}
	JOINT RightHip
	{
		OFFSET -11.7333 0.0000 0.0000
		CHANNELS 3 Zrotation Xrotation Yrotation
		JOINT RightKnee
		{
			OFFSET -0.0000 -40.8688 0.0000
			CHANNELS 3 Zrotation Xrotation Yrotation
			JOINT RightAnkle
			{
				OFFSET -0.0000 -44.4337 0.0000
				CHANNELS 3 Zrotation Xrotation Yrotation
				End Site
				{
					OFFSET -0.0000 -4.8889 16.6222
				}
			}
		}
	}
}
MOTION
Frames: 14
Frame Time: 0.010000
3.5214 85.7658 120.8086 1.7454 355.6563 174.8872 2.7698 9.5317 2.0727 355.8406 9.3572 2.6509 2.1967 339.1291 1.3557 357.8887 355.5357 0.8821 344.2264 357.0043 21.2754 309.0185 43.3208 2.9062 32.4519 348.0342 319.5458 88.2701 356.4854 359.4472 18.5226 359.1603 355.1292 27.3501 51.1652 44.5169 326.7496 344.6285 48.8580 273.8115 349.0795 12.0575 8.8235 321.1708 3.8474 345.0723 41.1295 9.3644 358.9814 348.9975 20.8490 4.4962 357.7775 359.3285 358.8128 24.7381 14.7845 351.7998 333.8026 334.8964 
3.5461 85.4226 119.6062 1.8707 355.7003 174.6988 3.0350 9.5579 2.1439 355.5016 9.5290 2.7767 1.6185 339.1693 1.1735 358.2588 355.4174 0.8241 344.3370 357.0969 20.9704 307.6427 42.6614 4.0276 32.0668 348.1493 320.0350 88.1231 356.2934 358.4979 18.6094 359.2080 355.4030 25.2002 50.9214 46.6253 326.5719 344.4834 48.9920 273.7905 348.8565 11.6827 8.8486 320.9835 3.9564 346.4467 38.2504 8.7976 358.4744 349.3821 20.7250 4.4692 358.6379 359.0375 358.8168 24.7492 15.0467 351.9513 333.3309 335.0444 
3.5589 85.0767 118.3666 1.9890 355.6960 174.4363 3.1494 9.4949 2.3224 355.3075 9.7031 2.9866 1.2033 339.0643 1.1165 358.4627 355.4272 0.8495 344.1220 357.0544 20.6213 306.6373 40.9829 5.1329 31.0730 348.6945 319.5802 88.8539 356.5751 357.8475 18.6729 359.2568 355.8127 23.5577 50.6751 48.2081 326.4417 344.4237 48.9717 273.6850 348.4746 11.3851 8.8796 320.9472 3.9862 347.8140 35.2693 8.2128 357.7631 349.7484 20.7307 4.4382 359.4776 358.8922 358.8332 24.7351 15.3095 351.9673 333.0293 335.1870 
3.5781 84.7311 117.0709 2.1667 355.7561 174.1109 3.2599 9.4271 2.5724 355.1491 9.9900 3.2700 0.8511 338.7103 1.0496 358.5592 355.6090 0.8452 343.9302 357.0309 20.2636 305.5529 39.6789 6.1181 30.3722 348.9307 319.8407 88.4555 356.4398 356.5982 18.7370 359.3040 356.0515 21.9428 50.4236 49.7982 326.2884 344.4111 48.7612 273.7299 348.0819 11.2544 8.9927 321.1257 3.9842 349.0085 32.4713 7.9422 356.1469 349.6662 22.8148 4.4804 0.3991 358.8907 358.8598 24.7428 15.3580 351.5804 332.7700 335.1398 
3.5816 84.3940 115.7462 2.3228 355.8307 173.7942 3.2967 9.4387 2.8046 355.0472 10.0909 3.5184 0.6355 338.4089 1.0178 358.5560 355.8474 0.8544 343.6721 357.0267 19.7289 304.5825 37.9789 6.9692 29.3767 349.3950 319.8257 88.3854 356.5245 355.5220 18.7934 359.3349 356.2632 21.0128 50.2017 50.6302 326.2133 344.4545 48.6246 273.4789 347.8242 11.2060 9.0328 321.3810 3.8885 349.9727 29.8357 8.1321 356.8624 349.8244 20.9738 4.4729 1.3270 358.9350 358.8314 24.8665 15.8410 351.7833 332.4964 335.0274 
3.5711 84.0701 114.3957 2.3665 355.8018 173.3346 3.2775 9.3363 3.0420 354.7865 10.0741 3.7722 0.6377 338.3578 1.1505 358.6278 355.8512 0.9989 343.4812 357.0756 19.0057 303.4990 35.3364 7.8929 28.1133 350.0334 319.0550 88.6324 357.0879 354.4428 18.9229 359.3740 356.5766 20.4268 50.1068 51.0589 326.2312 344.5493 48.4300 273.4188 347.9512 11.2535 9.0504 321.6474 3.7039 351.0115 27.5050 7.7089 357.0203 349.5650 20.7830 4.3475 2.1474 359.0198 358.6126 25.0227 17.4990 351.7976 332.6065 334.1581 
3.5105 83.7270 113.0070 2.3548 355.5826 172.8344 3.3525 8.9166 3.2578 354.3368 10.2292 4.0288 0.6854 338.0445 1.2558 358.6327 356.0055 1.0857 343.4156 357.1640 18.5842 302.4478 33.6200 8.5284 27.1639 350.2654 319.6263 88.0138 356.8533 353.1034 19.0851 359.4183 356.9007 20.1874 49.7351 51.2308 326.6171 344.8893 48.1601 273.0670 348.2544 11.1315 9.0020 321.8562 3.5270 352.0602 25.5096 7.0015 356.7642 349.3588 21.1767 4.0865 2.6774 359.1830 358.6577 25.3322 17.5351 351.9492 332.2651 334.5493 
3.4412 83.4071 111.5641 2.3635 355.5195 172.3689 3.4597 8.6456 3.4599 353.8482 10.3445 4.2797 0.5712 337.6403 1.2270 358.8598 356.2859 1.0836 343.2123 357.1916 18.0921 301.6848 31.8546 9.1976 26.1800 350.6695 320.3360 88.2959 356.2202 351.7347 19.3855 359.4279 356.8557 18.7615 49.6470 52.5910 326.8140 345.2530 46.9568 272.7509 348.0891 10.9837 8.9258 322.2166 2.8592 352.7830 24.0416 6.8787 355.5013 348.0553 26.4130 3.8153 3.3648 359.2931 358.5377 25.6857 17.9219 352.7769 332.0918 335.0899 
3.3688 83.1111 110.0741 2.3709 355.4885 171.9433 3.5126 8.3887 3.6051 353.4127 10.4168 4.4644 0.5237 337.2108 1.2169 359.1115 356.6131 1.0869 342.9434 357.2083 17.5473 301.0738 30.0237 9.6872 25.2113 351.1333 320.9376 88.4296 356.2802 351.0502 19.6860 359.4353 356.8776 18.3066 49.4127 52.8824 327.1856 345.7022 46.2414 272.4523 348.0417 11.0159 8.8325 322.6266 1.9305 353.3067 23.1381 6.6945 355.0587 347.2996 27.5692 3.5325 4.0454 359.3960 358.4966 26.1545 17.6656 353.8045 332.0395 336.0682 
3.3077 82.8407 108.5365 2.3508 355.4648 171.5192 3.4305 8.1004 3.7650 353.1060 10.4303 4.6382 0.4739 336.8166 1.2326 359.4282 356.9693 1.1167 342.6480 357.2373 16.9594 300.3622 28.0891 10.1169 24.4030 351.5686 321.5548 88.2807 356.4929 350.6281 19.9715 359.4403 356.9431 18.2516 49.1954 52.7121 327.5979 346.1739 45.5413 272.5538 347.8560 11.2140 8.7537 323.0443 1.0495 353.6342 22.8473 6.2455 354.4252 346.6196 27.6882 3.2371 4.6703 359.5271 358.3863 26.7878 17.8416 354.4073 332.1689 336.4921 
3.2447 82.5951 106.9428 2.3114 355.4400 171.0130 3.2691 7.7657 3.9766 352.8646 10.3823 4.8474 0.4441 336.5862 1.2379 359.7306 357.1882 1.1263 342.4657 357.3055 16.3938 299.5477 26.2571 10.2607 23.6230 352.0351 322.6512 87.7939 356.2373 349.9078 20.2702 359.4317 356.9083 18.1755 48.9785 52.5632 328.2308 346.7880 44.7241 272.3996 347.6279 11.5039 8.7114 323.5915 0.3262 353.7706 22.9674 5.7962 354.5014 346.2469 27.9044 2.9188 5.1948 359.7068 358.2766 27.4590 17.1970 355.2472 332.3482 337.6540 
3.1208 82.3753 105.4020 2.0960 354.9986 170.4508 2.9910 7.0669 4.2291 352.6458 10.1846 5.0696 0.5168 336.2089 1.1935 359.8220 357.7041 1.0716 342.2591 357.3723 15.7629 298.8553 24.0626 10.3997 22.6628 352.6020 323.8645 87.5562 356.1375 348.9171 20.5131 359.4001 356.6879 18.1607 48.9879 52.3965 328.6461 347.2403 43.6995 272.5109 347.3109 11.9728 8.6049 323.4176 359.9441 353.3901 24.1988 5.8615 356.8569 348.6135 26.6482 2.4317 4.9771 359.7571 357.9614 28.5983 17.3188 356.4839 332.9082 338.8318 
3.0116 82.1769 103.7948 1.9701 354.8932 170.0530 2.7117 6.6931 4.4190 352.4837 9.9562 5.2323 0.6160 335.9625 1.0796 0.0305 357.9992 0.9304 341.9720 357.4535 14.8339 298.3845 21.5015 10.4894 21.5367 353.2099 325.0788 87.4263 356.0467 347.8937 20.7257 359.3706 356.5553 19.3126 48.8464 51.0695 329.2879 347.8190 42.8770 272.5781 346.9000 13.0901 8.5928 323.4193 359.8541 352.4348 25.9131 5.2757 358.0938 349.3360 26.9191 2.0452 5.0735 359.7308 357.5718 29.9002 17.3395 358.1856 333.3630 340.1640 
2.9682 82.0668 102.5744 1.9149 355.0279 169.8564 2.4347 6.5646 4.4922 352.5062 9.7814 5.2730 0.7878 335.6638 1.0217 0.0810 358.3362 0.8364 341.6213 357.5895 13.2956 298.2535 16.7329 10.8267 19.3932 354.1972 325.4088 87.7070 356.1008 345.7486 20.8720 359.3379 356.3816 20.8319 48.5001 49.4581 330.1118 348.4653 42.1044 272.7057 346.7126 14.1734 8.6759 323.6252 359.7500 351.4980 27.1699 4.8371 358.4685 349.5033 27.2516 1.8887 5.1963 359.6051 357.0554 31.1479 17.4149 359.7915 333.7833 341.2178 
